<?xml version="1.0" standalone="no"?><!-- Generator: Gravit.io --><svg xmlns="http://www.w3.org/2000/svg" xmlns:xlink="http://www.w3.org/1999/xlink" style="isolation:isolate" viewBox="0 0 86 86" width="86" height="86"><defs><clipPath id="_clipPath_tqoLMEPpZ132zO7j7GbTmleTNgnVkyuk"><rect width="86" height="86"/></clipPath></defs><g clip-path="url(#_clipPath_tqoLMEPpZ132zO7j7GbTmleTNgnVkyuk)"><linearGradient id="_lgradient_0" x1="14.9721112959603%" y1="85.02788870403973%" x2="99.51159250585478%" y2="0.48840749414520435%"><stop offset="0%" stop-opacity="1" style="stop-color:rgb(202,0,0)"/><stop offset="99.1304347826087%" stop-opacity="1" style="stop-color:rgb(70,0,0)"/></linearGradient><path d=" M 0.301 84.122 C 0.301 84.908 0.938 85.545 1.724 85.545 C 1.724 85.545 42.365 85.545 43 85.545 C 66.583 85.545 85.7 66.428 85.7 42.845 C 85.7 19.263 66.583 0.145 43 0.145 C 19.417 0.145 0.3 19.263 0.3 42.845 C 0.3 43.481 0.301 84.122 0.301 84.122 Z " fill="url(#_lgradient_0)"/><g id="Group"><linearGradient id="_lgradient_1" x1="49.999999999999986%" y1="100%" x2="50.00000000000002%" y2="0%"><stop offset="2.608695652173913%" stop-opacity="1" style="stop-color:rgb(25,25,25)"/><stop offset="100%" stop-opacity="1" style="stop-color:rgb(0,0,0)"/></linearGradient><path d=" M 32.551 72.624 L 13.376 53.449 C 11.15 51.223 11.15 47.6 13.376 45.375 L 45.375 13.376 C 47.6 11.15 51.223 11.15 53.449 13.376 L 72.624 32.551 C 74.85 34.777 74.85 38.4 72.624 40.625 L 40.625 72.624 C 38.4 74.85 34.777 74.85 32.551 72.624 Z " fill="url(#_lgradient_1)"/><path d=" M 36.64 65.387 L 20.611 49.358 C 19.286 48.032 19.286 45.875 20.611 44.549 L 44.655 20.505 C 45.981 19.18 48.138 19.18 49.464 20.505 L 65.493 36.535 C 66.819 37.86 66.819 40.018 65.493 41.343 L 41.449 65.387 C 40.124 66.713 37.966 66.713 36.64 65.387 Z " fill="rgb(40,40,40)"/></g><g id="Group"><g opacity="0.6"><path d=" M 48.14 39.471 C 47.936 39.155 47.698 38.855 47.421 38.578 C 47.144 38.302 46.844 38.064 46.528 37.86 C 44.439 36.51 41.622 36.749 39.792 38.579 C 39.631 38.74 39.472 38.921 39.317 39.115 C 38.353 40.319 37.532 42.105 37.224 43.821 C 37.155 44.21 37.11 44.595 37.098 44.969 C 36.942 46.81 37.019 48.36 37.019 48.36 C 37.035 48.685 37.315 48.965 37.64 48.981 C 37.64 48.981 39.19 49.058 41.031 48.902 C 41.405 48.889 41.79 48.845 42.179 48.776 C 43.895 48.468 45.681 47.647 46.885 46.683 C 47.079 46.528 47.26 46.369 47.421 46.208 C 49.251 44.378 49.49 41.561 48.14 39.471 Z " fill="rgb(255,255,255)"/></g><path d=" M 45.947 40.889 C 45.833 40.712 45.711 40.56 45.575 40.424 C 45.44 40.288 45.288 40.166 45.111 40.053 C 44.027 39.352 42.577 39.506 41.659 40.417 C 41.649 40.426 41.64 40.434 41.631 40.442 C 41.623 40.451 41.615 40.46 41.606 40.469 C 40.695 41.388 40.541 42.838 41.242 43.922 C 41.356 44.098 41.477 44.251 41.613 44.386 C 41.749 44.522 41.901 44.644 42.078 44.758 C 43.162 45.458 44.612 45.304 45.53 44.394 C 45.54 44.384 45.549 44.376 45.557 44.368 C 45.565 44.36 45.574 44.351 45.583 44.341 C 46.493 43.423 46.647 41.973 45.947 40.889 Z " fill="rgb(255,255,255)"/></g></g></svg>